HIERARCHY
ROOT SpineBase
{
  OFFSET 0.000000 0.000000 0.000000
  CHANNELS 6 Xposition Yposition Zposition Zrotation Xrotation Yrotation
  JOINT SpineMid
  {
    OFFSET 0.000000 25.939080 0.000000
    CHANNELS 3 Zrotation Xrotation Yrotation
    JOINT SpineShoulder
    {
      OFFSET 0.056607 19.292988 -0.542142
      CHANNELS 3 Zrotation Xrotation Yrotation
      JOINT Neck
      {
        OFFSET 0.006371 6.412447 -0.447281
        CHANNELS 3 Zrotation Xrotation Yrotation
        JOINT Head
        {
          OFFSET 0.986208 12.204498 0.126095
          CHANNELS 3 Zrotation Xrotation Yrotation
          End Site
          {
            OFFSET 0 0 0
          }
        }
      }
      JOINT ShoulderLeft
      {
        OFFSET -11.975975 -3.460776 -8.560610
        CHANNELS 3 Zrotation Xrotation Yrotation
        JOINT ElbowLeft
        {
          OFFSET -3.028661 -21.125700 -3.443664
          CHANNELS 3 Zrotation Xrotation Yrotation
          JOINT WristLeft
          {
            OFFSET 6.788016 -20.250021 -4.682028
            CHANNELS 3 Zrotation Xrotation Yrotation
            JOINT HandLeft
            {
              OFFSET 1.551619 -4.738577 0.088518
              CHANNELS 3 Zrotation Xrotation Yrotation
              JOINT HandTipLeft
              {
                OFFSET 3.015345 -5.120453 0.389078
                CHANNELS 3 Zrotation Xrotation Yrotation
                End Site
                {
                  OFFSET 0 0 0
                }
              }
              JOINT ThumbLeft
              {
                OFFSET 2.179918 -0.059542 -2.104992
                CHANNELS 3 Zrotation Xrotation Yrotation
                End Site
                {
                  OFFSET 0 0 0
                }
              }
            }
          }
        }
      }
      JOINT ShoulderRight
      {
        OFFSET 11.296316 -2.938328 4.132886
        CHANNELS 3 Zrotation Xrotation Yrotation
        JOINT ElbowRight
        {
          OFFSET 3.760686 -24.840853 1.176065
          CHANNELS 3 Zrotation Xrotation Yrotation
          JOINT WristRight
          {
            OFFSET 0.947733 -19.992262 -7.528706
            CHANNELS 3 Zrotation Xrotation Yrotation
            JOINT HandRight
            {
              OFFSET -1.946691 -3.375663 -0.781232
              CHANNELS 3 Zrotation Xrotation Yrotation
              JOINT HandTipRight
              {
                OFFSET -0.143400 -4.942984 -2.592849
                CHANNELS 3 Zrotation Xrotation Yrotation
                End Site
                {
                  OFFSET 0 0 0
                }
              }
              JOINT ThumbRight
              {
                OFFSET 1.708190 0.820055 -2.752701
                CHANNELS 3 Zrotation Xrotation Yrotation
                End Site
                {
                  OFFSET 0 0 0
                }
              }
            }
          }
        }
      }
    }
  }
  JOINT HipLeft
  {
    OFFSET -5.285647 0.901687 -5.246760
    CHANNELS 3 Zrotation Xrotation Yrotation
    JOINT KneeLeft
    {
      OFFSET -6.692558 -31.320755 0.969705
      CHANNELS 3 Zrotation Xrotation Yrotation
      JOINT AnkleLeft
      {
        OFFSET -2.823937 -34.413184 11.223007
        CHANNELS 3 Zrotation Xrotation Yrotation
        JOINT FootLeft
        {
          OFFSET 3.976646 -5.676217 0.258191
          CHANNELS 3 Zrotation Xrotation Yrotation
          End Site
          {
            OFFSET 0 0 0
          }
        }
      }
    }
  }
  JOINT HipRight
  {
    OFFSET 5.016726 0.322790 -0.711230
    CHANNELS 3 Zrotation Xrotation Yrotation
    JOINT KneeRight
    {
      OFFSET -1.926878 -29.705164 4.732734
      CHANNELS 3 Zrotation Xrotation Yrotation
      JOINT AnkleRight
      {
        OFFSET -4.490134 -34.587500 9.408214
        CHANNELS 3 Zrotation Xrotation Yrotation
        JOINT FootRight
        {
          OFFSET 2.522501 -3.527244 -9.180986
          CHANNELS 3 Zrotation Xrotation Yrotation
          End Site
          {
            OFFSET 0 0 0
          }
        }
      }
    }
  }
}
MOTION
Frames: 13
Frame Time: 0.033333
15.844538 70.675508 368.683486 3.425699 -2.894591 -16.870668 0.124586 0.183466 17.057641 -0.407632 0.292473 0.117127 -13.644741 12.002163 0.504740 0.000000 0.000000 0.000000 54.270161 53.423956 -47.627688 110.637351 18.131939 43.995038 73.073431 -10.625930 159.386705 45.677075 24.447695 -108.734029 0.000000 0.000000 0.000000 0.000000 0.000000 0.000000 51.882502 37.209647 -12.352877 175.243739 40.369333 92.655846 -25.469474 -8.345487 -90.053465 2.038255 7.732704 64.518195 0.000000 0.000000 0.000000 0.000000 0.000000 0.000000 -3.321480 4.114266 16.594381 -3.746291 0.930320 -0.659729 0.601063 -11.515946 -5.303642 0.000000 0.000000 0.000000 -3.572805 0.780431 17.117593 0.039730 3.371037 -0.339953 -3.686664 -5.827544 7.073925 0.000000 0.000000 0.000000
15.893930 70.901732 368.684738 3.382675 -2.858788 -16.529712 -0.209740 0.224311 16.708567 -0.361436 0.254185 0.106158 -13.383947 12.166162 0.500814 0.000000 0.000000 0.000000 57.768710 55.145517 -51.319695 114.050756 18.434438 49.619898 77.952110 -5.326115 -178.752279 54.797302 12.875411 -129.536620 0.000000 0.000000 0.000000 0.000000 0.000000 0.000000 56.344489 37.535614 -13.853642 172.853746 37.178089 85.886331 -23.462635 -10.464727 -85.918094 2.417218 9.140201 63.210010 0.000000 0.000000 0.000000 0.000000 0.000000 0.000000 -3.268836 4.093053 16.252631 -3.729897 1.041684 -0.670417 0.425142 -9.880074 -4.072250 0.000000 0.000000 0.000000 -3.448037 0.803709 16.783437 -0.122786 3.289186 -0.361260 -4.075080 -6.397730 8.065089 0.000000 0.000000 0.000000
15.941125 71.126285 368.692667 3.367099 -2.824489 -16.295599 -0.353373 0.186657 16.472042 -0.267873 0.191903 0.105432 -13.975694 12.734356 0.609220 0.000000 0.000000 0.000000 62.411847 56.573909 -56.168168 117.786039 19.236254 55.579917 78.444183 -3.161048 -162.289923 58.005515 -0.618040 -145.019310 0.000000 0.000000 0.000000 0.000000 0.000000 0.000000 61.100902 38.291930 -15.927248 170.081140 34.930860 79.668482 -24.507531 -12.570863 -84.422617 3.847748 14.949847 63.297458 0.000000 0.000000 0.000000 0.000000 0.000000 0.000000 -3.257114 4.116369 16.006915 -3.780985 1.046972 -0.688718 -0.209270 -8.984969 -3.476472 0.000000 0.000000 0.000000 -3.349119 0.860528 16.556177 -0.286312 3.186050 -0.381858 -3.503243 -5.525373 7.181049 0.000000 0.000000 0.000000
15.971984 71.322992 368.703206 3.367875 -2.804992 -16.168173 -0.343468 0.113243 16.346084 -0.154858 0.121717 0.111984 -15.250167 13.490063 0.817538 0.000000 0.000000 0.000000 65.565797 57.708154 -59.845676 123.848091 19.794360 61.610640 76.294210 -6.704994 175.112429 54.561129 19.437851 -130.395771 0.000000 0.000000 0.000000 0.000000 0.000000 0.000000 66.234984 39.551741 -18.708549 166.560535 32.987182 73.714457 -24.021393 -16.348128 -82.843217 4.948431 20.341261 61.425350 0.000000 0.000000 0.000000 0.000000 0.000000 0.000000 -3.218460 4.164366 15.867062 -3.889489 1.043110 -0.708677 -1.517064 -7.595161 -2.601000 0.000000 0.000000 0.000000 -3.273284 0.944437 16.435875 -0.438853 2.947681 -0.383485 -2.032854 -3.245501 4.637201 0.000000 0.000000 0.000000
15.996917 71.476349 368.702189 3.512109 -2.895795 -16.012122 0.099353 -0.078493 16.211753 0.162956 -0.043989 0.151667 -18.978507 15.835071 1.473240 0.000000 0.000000 0.000000 66.109979 58.619900 -61.835460 131.208526 19.679484 66.992576 38.525487 10.062624 -9.987726 -14.295011 -37.375328 50.633723 0.000000 0.000000 0.000000 0.000000 0.000000 0.000000 70.852061 40.111303 -21.751558 162.680065 31.827774 70.468834 -26.016115 -19.787606 -84.479356 4.681448 23.937398 58.604819 0.000000 0.000000 0.000000 0.000000 0.000000 0.000000 -3.332181 4.307440 15.704262 -4.017354 1.002283 -0.724750 -1.309591 -6.084132 -1.394653 0.000000 0.000000 0.000000 -3.387060 1.066115 16.295308 -0.558851 2.756813 -0.384985 0.182261 -0.161432 0.968946 0.000000 0.000000 0.000000
15.992209 71.560836 368.698104 3.665523 -3.023545 -15.854830 0.151842 -0.143086 16.070006 0.117333 0.020051 0.154611 -20.677193 17.119384 1.862522 0.000000 0.000000 0.000000 67.420950 59.577663 -63.859490 139.059929 20.190525 73.371845 55.039787 31.977596 -84.275757 65.462120 -39.676671 150.780599 0.000000 0.000000 0.000000 0.000000 0.000000 0.000000 73.480561 39.845925 -22.909267 160.182674 30.285202 68.537079 -23.754900 -22.407394 -82.966315 6.069244 31.671887 60.481960 0.000000 0.000000 0.000000 0.000000 0.000000 0.000000 -3.414225 4.512932 15.538590 -4.221819 0.929618 -0.747732 -1.538880 -4.608173 -0.276419 0.000000 0.000000 0.000000 -3.467750 1.206173 16.164041 -0.731741 2.568835 -0.393834 0.717817 1.067341 0.493962 0.000000 0.000000 0.000000
15.964795 71.631918 368.660509 3.946509 -3.184941 -15.626198 0.230768 -0.118254 15.862975 0.049745 0.067250 0.164708 -23.143136 18.283533 2.391119 0.000000 0.000000 0.000000 65.788011 60.293440 -63.150308 145.920289 19.997495 77.687887 56.831857 39.674850 -92.295109 77.048098 -40.505356 153.996098 0.000000 0.000000 0.000000 0.000000 0.000000 0.000000 75.638263 38.923851 -23.490227 158.111515 28.648610 66.755158 -20.992377 -23.582181 -79.929892 6.420634 30.992047 58.486341 0.000000 0.000000 0.000000 0.000000 0.000000 0.000000 -3.571557 4.735008 15.307007 -4.467374 0.847236 -0.769556 -0.707607 -4.170837 0.164871 0.000000 0.000000 0.000000 -3.670202 1.332379 15.970263 -0.865172 2.473172 -0.403815 1.371592 1.778749 -0.639902 0.000000 0.000000 0.000000
15.952610 71.746124 368.663883 3.939541 -3.164308 -15.656040 0.301750 -0.127212 15.892854 0.036836 0.047331 0.167347 -24.130943 18.729219 2.627793 0.000000 0.000000 0.000000 66.109356 60.792279 -63.839709 151.108680 20.175460 82.763975 65.065200 41.540163 -106.537581 86.925550 -38.200168 161.547939 0.000000 0.000000 0.000000 0.000000 0.000000 0.000000 75.651428 37.406493 -22.531521 157.996960 27.676133 66.979165 -23.769133 -23.088086 -81.425444 6.044185 29.709394 57.256690 0.000000 0.000000 0.000000 0.000000 0.000000 0.000000 -3.468882 4.797927 15.320789 -4.611275 0.821204 -0.780084 2.306750 -4.732920 0.103998 0.000000 0.000000 0.000000 -3.626223 1.443513 15.999499 -0.922475 2.264309 -0.392993 -0.388669 -1.267581 1.608745 0.000000 0.000000 0.000000
15.961106 71.857113 368.685974 3.609210 -2.866821 -15.949816 -0.061818 -0.041787 16.150457 -0.251914 0.137802 0.126074 -21.207888 17.023993 1.980597 0.000000 0.000000 0.000000 65.790963 61.102550 -62.798415 156.327131 20.128247 88.294792 73.228060 40.396292 -118.433883 94.080664 -36.480551 166.615584 0.000000 0.000000 0.000000 0.000000 0.000000 0.000000 75.958211 35.721632 -20.680574 157.668318 26.801367 68.362304 -27.291937 -23.697580 -85.033102 4.134444 28.522914 56.513421 0.000000 0.000000 0.000000 0.000000 0.000000 0.000000 -3.043193 4.578221 15.589620 -4.673916 0.891040 -0.794549 3.453815 -6.236792 -0.772322 0.000000 0.000000 0.000000 -3.262159 1.306918 16.257613 -0.877790 2.132860 -0.371274 -0.916672 -2.772447 1.800615 0.000000 0.000000 0.000000
15.980414 71.968864 368.711599 3.026350 -2.344685 -16.478929 -0.636805 0.075028 16.621233 -0.509779 0.181189 0.067792 -15.944791 13.744845 1.002408 0.000000 0.000000 0.000000 65.249806 61.124249 -60.937297 159.157349 19.887005 91.767666 80.743269 36.365377 -130.141446 98.560774 -31.107516 171.315872 0.000000 0.000000 0.000000 0.000000 0.000000 0.000000 76.179656 34.474508 -18.715175 157.760226 26.388770 69.758259 -28.464049 -24.034097 -86.593292 2.605180 24.286010 54.102056 0.000000 0.000000 0.000000 0.000000 0.000000 0.000000 -2.377171 4.173489 16.085863 -4.645929 0.941541 -0.795467 3.636883 -8.097592 -2.027675 0.000000 0.000000 0.000000 -2.602897 1.074589 16.733707 -0.839487 1.968079 -0.349832 -4.359183 -8.400348 7.602407 0.000000 0.000000 0.000000
16.009970 72.071339 368.754513 2.031532 -1.594722 -16.960787 -1.386171 0.230530 17.022833 -0.772345 0.969826 -0.018016 -7.758496 7.948508 -0.023053 0.000000 0.000000 0.000000 63.589612 60.589431 -57.049228 158.959915 19.442412 91.966268 75.506785 35.804333 -121.218027 90.954631 -37.620397 162.148127 0.000000 0.000000 0.000000 0.000000 0.000000 0.000000 75.614099 33.519621 -15.621643 158.566370 26.029019 70.461092 -30.336961 -24.267830 -88.778564 0.115480 21.309949 53.799929 0.000000 0.000000 0.000000 0.000000 0.000000 0.000000 -1.318994 3.693281 16.523648 -4.498272 0.943018 -0.770969 3.357938 -10.558351 -3.789393 0.000000 0.000000 0.000000 -1.493163 0.744140 17.154969 -0.769031 1.877005 -0.330873 -5.282836 -10.256760 9.076185 0.000000 0.000000 0.000000
16.066479 72.181963 368.781636 0.963515 -0.771258 -17.352600 -1.149721 0.448679 17.363587 -1.416395 0.234348 -0.096150 -0.735366 4.017666 -0.148163 0.000000 0.000000 0.000000 65.574995 60.589420 -57.434121 157.987559 19.703268 91.583553 83.083757 32.267148 -135.397353 96.339209 -25.749478 170.748286 0.000000 0.000000 0.000000 0.000000 0.000000 0.000000 75.610865 33.634838 -14.954278 159.726891 25.857654 69.983417 -28.229847 -24.584128 -87.059047 0.137249 18.833173 52.124035 0.000000 0.000000 0.000000 0.000000 0.000000 0.000000 -0.207822 3.217877 16.880192 -4.337289 0.833380 -0.741657 0.321488 -9.146503 -3.375556 0.000000 0.000000 0.000000 -0.305592 0.369207 17.503402 -0.669119 1.816288 -0.309885 -5.302225 -10.205006 8.990645 0.000000 0.000000 0.000000
16.124343 72.278212 368.807066 -0.122328 0.051289 -17.615008 -2.097006 0.329301 17.561499 -0.648712 0.120771 -0.130591 5.436805 -0.153733 0.138655 0.000000 0.000000 0.000000 65.399421 60.303989 -55.782029 156.873582 19.766092 90.106166 62.869806 38.246602 -99.726484 69.320523 -52.046596 133.646645 0.000000 0.000000 0.000000 0.000000 0.000000 0.000000 76.535283 34.444242 -14.544860 160.134367 25.947353 67.695624 -26.021640 -25.796411 -84.908530 -0.160585 17.073159 49.857942 0.000000 0.000000 0.000000 0.000000 0.000000 0.000000 0.917896 2.783318 17.125109 -4.181520 0.665830 -0.710062 -2.213997 -9.607486 -4.246171 0.000000 0.000000 0.000000 0.132114 -0.011865 17.615076 0.184777 1.598893 -0.160541 -4.409395 -8.303853 7.305163 0.000000 0.000000 0.000000
